<svg width="441" height="174" viewBox="0 0 441 174" fill="none" xmlns="http://www.w3.org/2000/svg">
<rect width="441" height="174" fill="#A5E9F2"/>
<path d="M16.976 40L24.584 23.2H26.96L34.592 40H32.072L25.28 24.544H26.24L19.448 40H16.976ZM20.216 35.8L20.864 33.88H30.32L31.016 35.8H20.216ZM41.1541 40.192C39.9701 40.192 38.8181 40.008 37.6981 39.64C36.5941 39.272 35.6901 38.776 34.9861 38.152L36.0901 36.256C36.6501 36.784 37.3781 37.216 38.2741 37.552C39.1701 37.888 40.1221 38.056 41.1301 38.056C42.4101 38.056 43.3941 37.784 44.0821 37.24C44.7701 36.696 45.1141 35.968 45.1141 35.056C45.1141 34.432 44.9621 33.888 44.6581 33.424C44.3541 32.96 43.8261 32.608 43.0741 32.368C42.3381 32.112 41.3221 31.984 40.0261 31.984H36.2101L37.0981 23.2H46.5781V25.288H37.9861L39.2341 24.112L38.5381 31.048L37.2901 29.896H40.5301C42.2101 29.896 43.5621 30.112 44.5861 30.544C45.6101 30.976 46.3541 31.576 46.8181 32.344C47.2821 33.096 47.5141 33.968 47.5141 34.96C47.5141 35.92 47.2821 36.8 46.8181 37.6C46.3541 38.384 45.6501 39.016 44.7061 39.496C43.7781 39.96 42.5941 40.192 41.1541 40.192ZM53.0634 30.448H61.7034V32.488H53.0634V30.448ZM53.2794 37.912H63.0714V40H50.8794V23.2H62.7354V25.288H53.2794V37.912ZM71.0141 23.008C72.5341 23.008 73.8141 23.336 74.8541 23.992C75.9101 24.648 76.7101 25.6 77.2541 26.848C77.7981 28.08 78.0701 29.592 78.0701 31.384C78.0701 33.288 77.7341 34.896 77.0621 36.208C76.3901 37.52 75.4621 38.512 74.2781 39.184C73.0941 39.856 71.7101 40.192 70.1261 40.192C69.3421 40.192 68.5821 40.112 67.8461 39.952C67.1261 39.792 66.4941 39.544 65.9501 39.208L66.8621 37.336C67.3101 37.624 67.8061 37.832 68.3501 37.96C68.9101 38.072 69.4941 38.128 70.1021 38.128C71.7981 38.128 73.1501 37.6 74.1581 36.544C75.1661 35.472 75.6701 33.888 75.6701 31.792C75.6701 31.456 75.6541 31.056 75.6221 30.592C75.5901 30.128 75.5181 29.672 75.4061 29.224L76.1981 30.04C75.9741 30.776 75.5981 31.4 75.0701 31.912C74.5581 32.408 73.9341 32.784 73.1981 33.04C72.4781 33.28 71.6861 33.4 70.8221 33.4C69.7181 33.4 68.7341 33.192 67.8701 32.776C67.0061 32.36 66.3261 31.776 65.8301 31.024C65.3341 30.256 65.0861 29.352 65.0861 28.312C65.0861 27.224 65.3421 26.288 65.8541 25.504C66.3821 24.704 67.0941 24.088 67.9901 23.656C68.9021 23.224 69.9101 23.008 71.0141 23.008ZM71.1101 24.952C70.3901 24.952 69.7501 25.088 69.1901 25.36C68.6301 25.632 68.1901 26.008 67.8701 26.488C67.5661 26.968 67.4141 27.544 67.4141 28.216C67.4141 29.208 67.7581 30 68.4461 30.592C69.1341 31.168 70.0621 31.456 71.2301 31.456C71.9981 31.456 72.6701 31.312 73.2461 31.024C73.8381 30.736 74.2941 30.344 74.6141 29.848C74.9501 29.352 75.1181 28.8 75.1181 28.192C75.1181 27.6 74.9661 27.064 74.6621 26.584C74.3581 26.104 73.9101 25.712 73.3181 25.408C72.7261 25.104 71.9901 24.952 71.1101 24.952ZM83.9066 31.144H92.5706V33.208H83.9066V31.144ZM84.1466 40H81.7466V23.2H93.6026V25.288H84.1466V40ZM95.3255 40V38.368L102.166 31.768C102.774 31.192 103.222 30.688 103.51 30.256C103.814 29.808 104.014 29.4 104.11 29.032C104.222 28.648 104.278 28.28 104.278 27.928C104.278 27.064 103.974 26.384 103.366 25.888C102.758 25.392 101.87 25.144 100.702 25.144C99.8055 25.144 98.9975 25.296 98.2775 25.6C97.5575 25.888 96.9335 26.344 96.4055 26.968L94.7735 25.552C95.4135 24.736 96.2695 24.112 97.3415 23.68C98.4295 23.232 99.6215 23.008 100.918 23.008C102.086 23.008 103.102 23.2 103.966 23.584C104.83 23.952 105.494 24.488 105.958 25.192C106.438 25.896 106.678 26.728 106.678 27.688C106.678 28.232 106.606 28.768 106.462 29.296C106.318 29.824 106.046 30.384 105.646 30.976C105.246 31.568 104.67 32.232 103.918 32.968L97.8215 38.848L97.2455 37.912H107.398V40H95.3255Z" fill="#434343"/>
</svg>
