<svg width="901" height="175" viewBox="0 0 901 175" fill="none" xmlns="http://www.w3.org/2000/svg">
<rect width="441" height="174" fill="#434343"/>
<rect x="460" y="1" width="441" height="174" fill="#FFEF77"/>
<path d="M17.912 35.872V34.192L26.504 23.2H29.096L20.576 34.192L19.352 33.808H32.768V35.872H17.912ZM27.248 40V35.872L27.32 33.808V30.16H29.576V40H27.248ZM39.0614 40.192C37.8774 40.192 36.7254 40.008 35.6054 39.64C34.5014 39.272 33.5974 38.776 32.8934 38.152L33.9974 36.256C34.5574 36.784 35.2854 37.216 36.1814 37.552C37.0774 37.888 38.0374 38.056 39.0614 38.056C40.3094 38.056 41.2774 37.792 41.9654 37.264C42.6694 36.72 43.0214 35.992 43.0214 35.08C43.0214 34.2 42.6854 33.496 42.0134 32.968C41.3574 32.424 40.3094 32.152 38.8694 32.152H37.5254V30.472L42.5174 24.328L42.8534 25.288H33.6614V23.2H44.7494V24.832L39.7814 30.952L38.5334 30.208H39.3254C41.3574 30.208 42.8774 30.664 43.8854 31.576C44.9094 32.488 45.4214 33.648 45.4214 35.056C45.4214 36 45.1894 36.864 44.7254 37.648C44.2614 38.432 43.5574 39.056 42.6134 39.52C41.6854 39.968 40.5014 40.192 39.0614 40.192ZM47.4198 35.872V34.192L56.0118 23.2H58.6038L50.0838 34.192L48.8598 33.808H62.2758V35.872H47.4198ZM56.7558 40V35.872L56.8278 33.808V30.16H59.0838V40H56.7558ZM68.5693 40.192C67.3853 40.192 66.2333 40.008 65.1133 39.64C64.0093 39.272 63.1053 38.776 62.4013 38.152L63.5053 36.256C64.0653 36.784 64.7933 37.216 65.6893 37.552C66.5853 37.888 67.5453 38.056 68.5693 38.056C69.8173 38.056 70.7853 37.792 71.4733 37.264C72.1773 36.72 72.5293 35.992 72.5293 35.08C72.5293 34.2 72.1933 33.496 71.5213 32.968C70.8653 32.424 69.8173 32.152 68.3773 32.152H67.0333V30.472L72.0253 24.328L72.3613 25.288H63.1693V23.2H74.2573V24.832L69.2893 30.952L68.0413 30.208H68.8333C70.8653 30.208 72.3853 30.664 73.3933 31.576C74.4173 32.488 74.9293 33.648 74.9293 35.056C74.9293 36 74.6973 36.864 74.2333 37.648C73.7693 38.432 73.0653 39.056 72.1213 39.52C71.1933 39.968 70.0093 40.192 68.5693 40.192ZM76.9276 35.872V34.192L85.5196 23.2H88.1116L79.5916 34.192L78.3676 33.808H91.7836V35.872H76.9276ZM86.2636 40V35.872L86.3356 33.808V30.16H88.5916V40H86.2636ZM98.0771 40.192C96.8931 40.192 95.7411 40.008 94.6211 39.64C93.5171 39.272 92.6131 38.776 91.9091 38.152L93.0131 36.256C93.5731 36.784 94.3011 37.216 95.1971 37.552C96.0931 37.888 97.0531 38.056 98.0771 38.056C99.3251 38.056 100.293 37.792 100.981 37.264C101.685 36.72 102.037 35.992 102.037 35.08C102.037 34.2 101.701 33.496 101.029 32.968C100.373 32.424 99.3251 32.152 97.8851 32.152H96.5411V30.472L101.533 24.328L101.869 25.288H92.6771V23.2H103.765V24.832L98.7971 30.952L97.5491 30.208H98.3411C100.373 30.208 101.893 30.664 102.901 31.576C103.925 32.488 104.437 33.648 104.437 35.056C104.437 36 104.205 36.864 103.741 37.648C103.277 38.432 102.573 39.056 101.629 39.52C100.701 39.968 99.5171 40.192 98.0771 40.192Z" fill="white"/>
<path d="M484.68 31.144H493.344V33.208H484.68V31.144ZM484.92 40H482.52V23.2H494.376V25.288H484.92V40ZM499.914 31.144H508.578V33.208H499.914V31.144ZM500.154 40H497.754V23.2H509.61V25.288H500.154V40ZM515.173 30.448H523.813V32.488H515.173V30.448ZM515.389 37.912H525.181V40H512.989V23.2H524.845V25.288H515.389V37.912ZM531.227 31.144H539.891V33.208H531.227V31.144ZM531.467 40H529.067V23.2H540.923V25.288H531.467V40ZM546.072 40L553.2 24.208L553.824 25.288H543.84L545.04 24.112V28.288H542.736V23.2H555.408V24.832L548.616 40H546.072ZM560.415 40L567.543 24.208L568.167 25.288H558.183L559.383 24.112V28.288H557.079V23.2H569.751V24.832L562.959 40H560.415Z" fill="#434343"/>
</svg>
