<svg width="157" height="67" viewBox="0 0 157 67" fill="none" xmlns="http://www.w3.org/2000/svg">
<path d="M23.76 35.416L22.464 37C19.456 37 16.704 36.504 14.208 35.512C11.744 34.488 9.2 32.808 6.576 30.472L2.16 40.312L0 39.736C3.2 30.04 7.536 20.344 13.008 10.648L15.456 11.656C13.6 15.432 11.824 19.128 10.128 22.744C13.616 21.688 17.248 19.544 21.024 16.312C24.8 13.08 26.688 10.488 26.688 8.536C26.688 6.712 25.184 5.8 22.176 5.8C17.6 5.8 11.44 8.424 3.696 13.672L2.304 11.512C5.792 8.984 9.232 7 12.624 5.56C16.016 4.12 18.96 3.4 21.456 3.4C23.824 3.4 25.728 3.96 27.168 5.08C28.608 6.168 29.328 7.624 29.328 9.448C29.328 12.136 27.488 15 23.808 18.04C20.16 21.08 14.848 24.152 7.872 27.256C12.608 31.704 17.904 34.424 23.76 35.416ZM29.8875 25.912C29.0875 26.712 27.7595 27.528 25.9035 28.36C25.8395 29.224 25.9835 29.784 26.3355 30.04C26.3995 30.104 26.5275 30.136 26.7195 30.136C27.4555 30.136 28.6875 29.288 30.4155 27.592C32.1435 25.864 33.5675 24.296 34.6875 22.888L35.5035 23.368C35.4715 23.4 35.2635 23.736 34.8795 24.376C34.4955 24.984 34.1915 25.448 33.9675 25.768C33.7755 26.056 33.4235 26.552 32.9115 27.256C32.4315 27.928 32.0155 28.472 31.6635 28.888C31.3115 29.272 30.8635 29.736 30.3195 30.28C29.8075 30.824 29.3275 31.256 28.8795 31.576C28.4315 31.896 27.9355 32.168 27.3915 32.392C26.8795 32.616 26.3835 32.728 25.9035 32.728C25.4555 32.728 25.0875 32.664 24.7995 32.536C23.7115 32.12 23.0395 31.256 22.7835 29.944C22.5595 28.6 22.6875 27.24 23.1675 25.864C23.6475 24.456 24.3995 23.208 25.4235 22.12C26.4475 21 27.5195 20.44 28.6395 20.44H28.8315C30.2075 20.504 31.0075 21.16 31.2315 22.408C31.4555 23.656 31.0075 24.824 29.8875 25.912ZM26.1435 26.776C27.1675 26.424 28.0155 25.88 28.6875 25.144C29.3275 24.408 29.5995 23.592 29.5035 22.696C29.4075 22.216 29.1995 21.976 28.8795 21.976C28.4635 22.04 27.9835 22.568 27.4395 23.56C26.8955 24.52 26.4635 25.592 26.1435 26.776ZM39.6289 21.4L39.9649 20.728L42.6529 20.584C40.8929 25.384 40.0129 28.568 40.0129 30.136C40.4609 30.104 41.4849 29.352 43.0849 27.88C44.6849 26.376 46.2369 24.744 47.7409 22.984L48.5089 23.416C46.2049 27 44.3489 29.448 42.9409 30.76C41.6289 31.944 40.4609 32.536 39.4369 32.536C37.9009 32.536 37.1329 31.464 37.1329 29.32V29.032C36.5249 29.832 35.8049 30.488 34.9729 31C34.1409 31.48 33.3569 31.72 32.6209 31.72C31.4049 31.72 30.7969 31.192 30.7969 30.136C30.7969 28.536 31.6449 26.536 33.3409 24.136C35.0689 21.736 36.4929 20.536 37.6129 20.536C38.1249 20.536 38.7969 20.824 39.6289 21.4ZM37.9489 21.976C36.8609 23.128 35.8369 24.52 34.8769 26.152C33.9489 27.752 33.3889 29.048 33.1969 30.04C33.9969 29.656 35.1489 28.488 36.6529 26.536C38.1569 24.552 38.9089 23.24 38.9089 22.6C38.9089 22.184 38.5889 21.976 37.9489 21.976ZM53.571 21.688C54.083 20.44 54.643 19.128 55.251 17.752C55.891 16.344 56.595 14.808 57.363 13.144C58.163 11.48 58.771 10.168 59.187 9.208L61.059 10.216C60.707 11.176 59.891 13.256 58.611 16.456C57.363 19.656 56.467 22.008 55.923 23.512C55.379 25.016 54.723 27.048 53.955 29.608C53.187 32.136 52.595 34.488 52.179 36.664L49.683 35.944C50.227 32.872 50.739 30.408 51.219 28.552C50.739 29.64 49.955 30.584 48.867 31.384C47.779 32.152 46.723 32.536 45.699 32.536C44.483 32.536 43.875 31.992 43.875 30.904C43.875 29.08 44.755 26.904 46.515 24.376C48.275 21.848 49.779 20.584 51.027 20.584C51.731 20.584 52.579 20.952 53.571 21.688ZM46.467 30.76C47.203 30.504 48.403 29.288 50.067 27.112C51.731 24.904 52.563 23.448 52.563 22.744C52.563 22.04 52.403 21.688 52.083 21.688C51.443 21.688 50.387 22.936 48.915 25.432C47.475 27.928 46.659 29.704 46.467 30.76ZM93.5741 34.936L91.1741 32.296C91.9101 29.864 93.0941 26.616 94.7261 22.552C96.3901 18.488 97.7021 15.208 98.6621 12.712C99.6221 10.216 99.9101 8.968 99.5261 8.968C99.0461 8.968 97.5741 10.664 95.1101 14.056C92.6461 17.448 90.0541 21.08 87.3341 24.952C84.6141 28.792 82.8541 31.048 82.0541 31.72L79.3661 29.608C79.8781 27.624 80.8061 24.712 82.1501 20.872C83.5261 17 84.5341 13.928 85.1741 11.656C85.8141 9.384 85.8301 8.248 85.2221 8.248C85.0941 8.248 84.9821 8.264 84.8861 8.296C83.9581 8.68 82.3901 10.488 80.1821 13.72C77.9741 16.92 75.2861 21.048 72.1181 26.104C68.9821 31.16 66.6781 34.744 65.2061 36.856L61.0781 34.936C64.4061 23.928 67.9421 13.4 71.6861 3.352L75.0941 4.552C70.4541 16.488 67.2061 25.544 65.3501 31.72C65.9581 30.696 66.9661 29.016 68.3741 26.68C69.7821 24.344 70.8541 22.584 71.5901 21.4C72.3261 20.216 73.3021 18.648 74.5181 16.696C75.7661 14.744 76.8061 13.224 77.6381 12.136C78.5021 11.048 79.4461 9.896 80.4701 8.68C81.4941 7.464 82.4381 6.552 83.3021 5.944C84.1981 5.304 85.0461 4.888 85.8461 4.696C86.0061 4.664 86.2461 4.648 86.5661 4.648C87.5901 4.648 88.1821 5.288 88.3421 6.568C88.5341 7.816 88.3741 9.416 87.8621 11.368C87.3821 13.288 86.8221 15.224 86.1821 17.176C85.5421 19.128 84.9181 20.968 84.3101 22.696C83.7021 24.424 83.3821 25.512 83.3501 25.96C83.8621 25.224 84.7421 23.944 85.9901 22.12C87.2381 20.296 88.2781 18.776 89.1101 17.56C89.9421 16.344 90.9981 14.92 92.2781 13.288C93.5581 11.624 94.6781 10.296 95.6381 9.304C96.5981 8.312 97.6061 7.448 98.6621 6.712C99.7501 5.976 100.694 5.608 101.494 5.608C101.718 5.608 101.894 5.624 102.022 5.656C102.662 5.784 103.03 6.216 103.126 6.952C103.254 7.688 103.142 8.664 102.79 9.88C102.47 11.096 102.022 12.456 101.446 13.96C100.902 15.432 100.23 17.08 99.4301 18.904C98.6621 20.728 97.9101 22.52 97.1741 24.28C96.4701 26.008 95.7821 27.832 95.1101 29.752C94.4381 31.672 93.9261 33.4 93.5741 34.936ZM106.191 21.4L106.527 20.728L109.215 20.584C107.455 25.384 106.575 28.568 106.575 30.136C107.023 30.104 108.047 29.352 109.647 27.88C111.247 26.376 112.799 24.744 114.303 22.984L115.071 23.416C112.767 27 110.911 29.448 109.503 30.76C108.191 31.944 107.023 32.536 105.999 32.536C104.463 32.536 103.695 31.464 103.695 29.32V29.032C103.087 29.832 102.367 30.488 101.535 31C100.703 31.48 99.9194 31.72 99.1834 31.72C97.9674 31.72 97.3594 31.192 97.3594 30.136C97.3594 28.536 98.2074 26.536 99.9034 24.136C101.631 21.736 103.055 20.536 104.175 20.536C104.687 20.536 105.359 20.824 106.191 21.4ZM104.511 21.976C103.423 23.128 102.399 24.52 101.439 26.152C100.511 27.752 99.9514 29.048 99.7594 30.04C100.559 29.656 101.711 28.488 103.215 26.536C104.719 24.552 105.471 23.24 105.471 22.6C105.471 22.184 105.151 21.976 104.511 21.976ZM128.814 22.888L129.582 23.32C128.206 25.688 126.59 27.816 124.734 29.704C122.878 31.592 121.47 32.536 120.51 32.536C119.134 32.536 118.446 31.208 118.446 28.552C118.446 27.4 118.59 26.248 118.878 25.096C118.686 25.32 118.334 25.752 117.822 26.392C117.31 27 116.942 27.448 116.718 27.736C116.494 28.024 116.158 28.44 115.71 28.984C115.294 29.528 114.958 29.992 114.702 30.376C114.446 30.76 114.158 31.224 113.838 31.768C113.518 32.28 113.246 32.776 113.022 33.256L110.766 32.728C111.502 28.472 113.134 23.8 115.662 18.712L118.062 19.24C116.462 22.472 115.342 25.016 114.702 26.872C114.926 26.616 115.374 26.088 116.046 25.288C116.718 24.456 117.262 23.816 117.678 23.368C118.094 22.888 118.622 22.376 119.262 21.832C119.902 21.288 120.494 20.888 121.038 20.632L123.294 21.16C123.198 21.544 123.022 22.12 122.766 22.888C122.542 23.656 122.366 24.28 122.238 24.76C122.11 25.24 121.982 25.816 121.854 26.488C121.758 27.16 121.71 27.784 121.71 28.36C121.71 28.872 121.758 29.32 121.854 29.704C123.646 28.52 125.966 26.248 128.814 22.888ZM126.987 45.592C124.907 45.08 124.363 43.528 125.355 40.936C126.411 38.184 128.651 35.336 132.075 32.392C132.907 31.656 133.787 30.968 134.715 30.328C135.387 28.312 135.899 26.408 136.251 24.616C132.923 29.672 130.267 32.2 128.283 32.2C127.707 32.2 127.163 31.992 126.651 31.576C125.851 30.968 125.531 30.072 125.691 28.888C125.851 27.704 126.235 26.52 126.843 25.336C127.451 24.12 128.315 23.016 129.435 22.024C130.587 21 131.755 20.36 132.939 20.104C133.323 20.04 133.611 20.008 133.803 20.008C134.347 20.008 134.923 20.104 135.531 20.296C136.139 20.488 136.763 20.744 137.403 21.064C138.075 21.384 138.571 21.592 138.891 21.688C138.667 25.624 137.979 29.464 136.827 33.208C135.675 36.92 134.267 39.928 132.603 42.232C130.939 44.536 129.307 45.688 127.707 45.688C127.547 45.688 127.307 45.656 126.987 45.592ZM127.419 43.528C128.059 43.624 128.987 42.632 130.203 40.552C131.451 38.504 132.683 35.864 133.899 32.632C132.139 34.264 130.379 36.536 128.619 39.448C127.083 42.04 126.683 43.4 127.419 43.528ZM127.995 30.04C128.091 30.168 128.219 30.232 128.379 30.232C129.019 30.232 130.091 29.336 131.595 27.544C133.131 25.72 134.523 23.832 135.771 21.88C135.515 21.752 135.291 21.688 135.099 21.688C134.235 21.688 133.131 22.248 131.787 23.368C130.443 24.456 129.355 25.688 128.523 27.064C127.723 28.44 127.547 29.432 127.995 30.04ZM147.676 21.4L148.012 20.728L150.7 20.584C148.94 25.384 148.06 28.568 148.06 30.136C148.508 30.104 149.532 29.352 151.132 27.88C152.732 26.376 154.284 24.744 155.788 22.984L156.556 23.416C154.252 27 152.396 29.448 150.988 30.76C149.676 31.944 148.508 32.536 147.484 32.536C145.948 32.536 145.18 31.464 145.18 29.32V29.032C144.572 29.832 143.852 30.488 143.02 31C142.188 31.48 141.404 31.72 140.668 31.72C139.452 31.72 138.844 31.192 138.844 30.136C138.844 28.536 139.692 26.536 141.388 24.136C143.116 21.736 144.54 20.536 145.66 20.536C146.172 20.536 146.844 20.824 147.676 21.4ZM145.996 21.976C144.908 23.128 143.884 24.52 142.924 26.152C141.996 27.752 141.436 29.048 141.244 30.04C142.044 29.656 143.196 28.488 144.7 26.536C146.204 24.552 146.956 23.24 146.956 22.6C146.956 22.184 146.636 21.976 145.996 21.976Z" fill="#FFEF77"/>
<path d="M4.928 63.08C4.128 63.08 3.408 62.8987 2.768 62.536C2.13867 62.1733 1.64267 61.672 1.28 61.032C0.917333 60.3813 0.736 59.6347 0.736 58.792C0.736 57.9387 0.917333 57.192 1.28 56.552C1.64267 55.912 2.13867 55.416 2.768 55.064C3.408 54.7013 4.128 54.52 4.928 54.52C5.664 54.52 6.32 54.6853 6.896 55.016C7.48267 55.3467 7.94667 55.832 8.288 56.472C8.64 57.1013 8.816 57.8747 8.816 58.792C8.816 59.6987 8.64533 60.472 8.304 61.112C7.96267 61.752 7.49867 62.2427 6.912 62.584C6.336 62.9147 5.67467 63.08 4.928 63.08ZM5.008 62.072C5.60533 62.072 6.13867 61.9387 6.608 61.672C7.088 61.3947 7.46133 61.0107 7.728 60.52C8.00533 60.0187 8.144 59.4427 8.144 58.792C8.144 58.1307 8.00533 57.5547 7.728 57.064C7.46133 56.5733 7.088 56.1947 6.608 55.928C6.13867 55.6507 5.60533 55.512 5.008 55.512C4.42133 55.512 3.89333 55.6507 3.424 55.928C2.95467 56.1947 2.58133 56.5733 2.304 57.064C2.02667 57.5547 1.888 58.1307 1.888 58.792C1.888 59.4427 2.02667 60.0187 2.304 60.52C2.58133 61.0107 2.95467 61.3947 3.424 61.672C3.89333 61.9387 4.42133 62.072 5.008 62.072ZM8.176 63V60.472L8.288 58.776L8.128 57.08V51.128H9.264V63H8.176ZM15.9958 63.08C15.1211 63.08 14.3531 62.8987 13.6918 62.536C13.0304 62.1627 12.5131 61.656 12.1398 61.016C11.7664 60.3653 11.5798 59.624 11.5798 58.792C11.5798 57.96 11.7558 57.224 12.1078 56.584C12.4704 55.944 12.9611 55.4427 13.5798 55.08C14.2091 54.7067 14.9131 54.52 15.6918 54.52C16.4811 54.52 17.1798 54.7013 17.7878 55.064C18.4064 55.416 18.8918 55.9173 19.2438 56.568C19.5958 57.208 19.7718 57.9493 19.7718 58.792C19.7718 58.8453 19.7664 58.904 19.7558 58.968C19.7558 59.0213 19.7558 59.08 19.7558 59.144H12.4438V58.296H19.1478L18.6998 58.632C18.6998 58.024 18.5664 57.4853 18.2998 57.016C18.0438 56.536 17.6918 56.1627 17.2438 55.896C16.7958 55.6293 16.2784 55.496 15.6918 55.496C15.1158 55.496 14.5984 55.6293 14.1398 55.896C13.6811 56.1627 13.3238 56.536 13.0678 57.016C12.8118 57.496 12.6838 58.0453 12.6838 58.664V58.84C12.6838 59.48 12.8224 60.0453 13.0998 60.536C13.3878 61.016 13.7824 61.3947 14.2838 61.672C14.7958 61.9387 15.3771 62.072 16.0278 62.072C16.5398 62.072 17.0144 61.9813 17.4518 61.8C17.8998 61.6187 18.2838 61.3413 18.6038 60.968L19.2438 61.704C18.8704 62.152 18.4011 62.4933 17.8358 62.728C17.2811 62.9627 16.6678 63.08 15.9958 63.08ZM24.34 63.08C23.6467 63.08 22.9907 62.984 22.372 62.792C21.7533 62.5893 21.268 62.3387 20.916 62.04L21.428 61.144C21.7693 61.4 22.2067 61.624 22.74 61.816C23.2733 61.9973 23.8333 62.088 24.42 62.088C25.22 62.088 25.796 61.9653 26.148 61.72C26.5 61.464 26.676 61.128 26.676 60.712C26.676 60.4027 26.5747 60.1627 26.372 59.992C26.18 59.8107 25.924 59.6773 25.604 59.592C25.284 59.496 24.9267 59.416 24.532 59.352C24.1373 59.288 23.7427 59.2133 23.348 59.128C22.964 59.0427 22.612 58.92 22.292 58.76C21.972 58.5893 21.7107 58.36 21.508 58.072C21.316 57.784 21.22 57.4 21.22 56.92C21.22 56.4613 21.348 56.0507 21.604 55.688C21.86 55.3253 22.2333 55.0427 22.724 54.84C23.2253 54.6267 23.8333 54.52 24.548 54.52C25.092 54.52 25.636 54.5947 26.18 54.744C26.724 54.8827 27.172 55.0693 27.524 55.304L27.028 56.216C26.6547 55.96 26.2547 55.7787 25.828 55.672C25.4013 55.5547 24.9747 55.496 24.548 55.496C23.7907 55.496 23.2307 55.6293 22.868 55.896C22.516 56.152 22.34 56.4827 22.34 56.888C22.34 57.208 22.436 57.4587 22.628 57.64C22.8307 57.8213 23.092 57.9653 23.412 58.072C23.7427 58.168 24.1 58.248 24.484 58.312C24.8787 58.376 25.268 58.456 25.652 58.552C26.0467 58.6373 26.404 58.76 26.724 58.92C27.0547 59.0693 27.316 59.288 27.508 59.576C27.7107 59.8533 27.812 60.2213 27.812 60.68C27.812 61.1707 27.6733 61.5973 27.396 61.96C27.1293 62.312 26.7347 62.5893 26.212 62.792C25.7 62.984 25.076 63.08 24.34 63.08ZM29.8965 63V54.6H31.0325V63H29.8965ZM30.4725 52.744C30.2378 52.744 30.0405 52.664 29.8805 52.504C29.7205 52.344 29.6405 52.152 29.6405 51.928C29.6405 51.704 29.7205 51.5173 29.8805 51.368C30.0405 51.208 30.2378 51.128 30.4725 51.128C30.7072 51.128 30.9045 51.2027 31.0645 51.352C31.2245 51.5013 31.3045 51.688 31.3045 51.912C31.3045 52.1467 31.2245 52.344 31.0645 52.504C30.9152 52.664 30.7178 52.744 30.4725 52.744ZM37.7774 66.184C37.0094 66.184 36.2734 66.072 35.5694 65.848C34.8654 65.624 34.2947 65.304 33.8574 64.888L34.4334 64.024C34.828 64.376 35.3134 64.6533 35.8894 64.856C36.476 65.0693 37.0947 65.176 37.7454 65.176C38.812 65.176 39.596 64.9253 40.0974 64.424C40.5987 63.9333 40.8494 63.1653 40.8494 62.12V60.024L41.0094 58.584L40.8974 57.144V54.6H41.9854V61.976C41.9854 63.4267 41.628 64.488 40.9134 65.16C40.2094 65.8427 39.164 66.184 37.7774 66.184ZM37.5694 62.68C36.7694 62.68 36.0494 62.5093 35.4094 62.168C34.7694 61.816 34.2627 61.3307 33.8894 60.712C33.5267 60.0933 33.3454 59.384 33.3454 58.584C33.3454 57.784 33.5267 57.08 33.8894 56.472C34.2627 55.8533 34.7694 55.3733 35.4094 55.032C36.0494 54.6907 36.7694 54.52 37.5694 54.52C38.316 54.52 38.988 54.6747 39.5854 54.984C40.1827 55.2933 40.6574 55.752 41.0094 56.36C41.3614 56.968 41.5374 57.7093 41.5374 58.584C41.5374 59.4587 41.3614 60.2 41.0094 60.808C40.6574 61.416 40.1827 61.88 39.5854 62.2C38.988 62.52 38.316 62.68 37.5694 62.68ZM37.6814 61.672C38.3 61.672 38.8494 61.544 39.3294 61.288C39.8094 61.0213 40.188 60.6587 40.4654 60.2C40.7427 59.7307 40.8814 59.192 40.8814 58.584C40.8814 57.976 40.7427 57.4427 40.4654 56.984C40.188 56.5253 39.8094 56.168 39.3294 55.912C38.8494 55.6453 38.3 55.512 37.6814 55.512C37.0734 55.512 36.524 55.6453 36.0334 55.912C35.5534 56.168 35.1747 56.5253 34.8974 56.984C34.6307 57.4427 34.4974 57.976 34.4974 58.584C34.4974 59.192 34.6307 59.7307 34.8974 60.2C35.1747 60.6587 35.5534 61.0213 36.0334 61.288C36.524 61.544 37.0734 61.672 37.6814 61.672ZM49.4345 54.52C50.1172 54.52 50.7145 54.6533 51.2265 54.92C51.7492 55.176 52.1545 55.5707 52.4425 56.104C52.7412 56.6373 52.8905 57.3093 52.8905 58.12V63H51.7545V58.232C51.7545 57.3467 51.5305 56.68 51.0825 56.232C50.6452 55.7733 50.0265 55.544 49.2265 55.544C48.6292 55.544 48.1065 55.6667 47.6585 55.912C47.2212 56.1467 46.8798 56.4933 46.6345 56.952C46.3998 57.4 46.2825 57.944 46.2825 58.584V63H45.1465V54.6H46.2345V56.904L46.0585 56.472C46.3252 55.864 46.7518 55.3893 47.3385 55.048C47.9252 54.696 48.6238 54.52 49.4345 54.52ZM62.4025 63.08C61.7092 63.08 61.0532 62.984 60.4345 62.792C59.8158 62.5893 59.3305 62.3387 58.9785 62.04L59.4905 61.144C59.8318 61.4 60.2692 61.624 60.8025 61.816C61.3358 61.9973 61.8958 62.088 62.4825 62.088C63.2825 62.088 63.8585 61.9653 64.2105 61.72C64.5625 61.464 64.7385 61.128 64.7385 60.712C64.7385 60.4027 64.6372 60.1627 64.4345 59.992C64.2425 59.8107 63.9865 59.6773 63.6665 59.592C63.3465 59.496 62.9892 59.416 62.5945 59.352C62.1998 59.288 61.8052 59.2133 61.4105 59.128C61.0265 59.0427 60.6745 58.92 60.3545 58.76C60.0345 58.5893 59.7732 58.36 59.5705 58.072C59.3785 57.784 59.2825 57.4 59.2825 56.92C59.2825 56.4613 59.4105 56.0507 59.6665 55.688C59.9225 55.3253 60.2958 55.0427 60.7865 54.84C61.2878 54.6267 61.8958 54.52 62.6105 54.52C63.1545 54.52 63.6985 54.5947 64.2425 54.744C64.7865 54.8827 65.2345 55.0693 65.5865 55.304L65.0905 56.216C64.7172 55.96 64.3172 55.7787 63.8905 55.672C63.4638 55.5547 63.0372 55.496 62.6105 55.496C61.8532 55.496 61.2932 55.6293 60.9305 55.896C60.5785 56.152 60.4025 56.4827 60.4025 56.888C60.4025 57.208 60.4985 57.4587 60.6905 57.64C60.8932 57.8213 61.1545 57.9653 61.4745 58.072C61.8052 58.168 62.1625 58.248 62.5465 58.312C62.9412 58.376 63.3305 58.456 63.7145 58.552C64.1092 58.6373 64.4665 58.76 64.7865 58.92C65.1172 59.0693 65.3785 59.288 65.5705 59.576C65.7732 59.8533 65.8745 60.2213 65.8745 60.68C65.8745 61.1707 65.7358 61.5973 65.4585 61.96C65.1918 62.312 64.7972 62.5893 64.2745 62.792C63.7625 62.984 63.1385 63.08 62.4025 63.08ZM67.8668 66.184C67.4721 66.184 67.0934 66.12 66.7308 65.992C66.3788 65.864 66.0747 65.672 65.8187 65.416L66.3468 64.568C66.5601 64.7707 66.7894 64.9253 67.0348 65.032C67.2908 65.1493 67.5734 65.208 67.8828 65.208C68.2561 65.208 68.5761 65.1013 68.8428 64.888C69.1201 64.6853 69.3814 64.3227 69.6268 63.8L70.1708 62.568L70.2988 62.392L73.7548 54.6H74.8748L70.6668 64.008C70.4321 64.552 70.1708 64.984 69.8828 65.304C69.6054 65.624 69.3014 65.848 68.9708 65.976C68.6401 66.1147 68.2721 66.184 67.8668 66.184ZM70.1068 63.24L66.2348 54.6H67.4188L70.8428 62.312L70.1068 63.24ZM78.6369 63.08C77.9435 63.08 77.2875 62.984 76.6689 62.792C76.0502 62.5893 75.5649 62.3387 75.2129 62.04L75.7249 61.144C76.0662 61.4 76.5035 61.624 77.0369 61.816C77.5702 61.9973 78.1302 62.088 78.7169 62.088C79.5169 62.088 80.0929 61.9653 80.4449 61.72C80.7969 61.464 80.9729 61.128 80.9729 60.712C80.9729 60.4027 80.8715 60.1627 80.6689 59.992C80.4769 59.8107 80.2209 59.6773 79.9009 59.592C79.5809 59.496 79.2235 59.416 78.8289 59.352C78.4342 59.288 78.0395 59.2133 77.6449 59.128C77.2609 59.0427 76.9089 58.92 76.5889 58.76C76.2689 58.5893 76.0075 58.36 75.8049 58.072C75.6129 57.784 75.5169 57.4 75.5169 56.92C75.5169 56.4613 75.6449 56.0507 75.9009 55.688C76.1569 55.3253 76.5302 55.0427 77.0209 54.84C77.5222 54.6267 78.1302 54.52 78.8449 54.52C79.3889 54.52 79.9329 54.5947 80.4769 54.744C81.0209 54.8827 81.4689 55.0693 81.8209 55.304L81.3249 56.216C80.9515 55.96 80.5515 55.7787 80.1249 55.672C79.6982 55.5547 79.2715 55.496 78.8449 55.496C78.0875 55.496 77.5275 55.6293 77.1649 55.896C76.8129 56.152 76.6369 56.4827 76.6369 56.888C76.6369 57.208 76.7329 57.4587 76.9249 57.64C77.1275 57.8213 77.3889 57.9653 77.7089 58.072C78.0395 58.168 78.3969 58.248 78.7809 58.312C79.1755 58.376 79.5649 58.456 79.9489 58.552C80.3435 58.6373 80.7009 58.76 81.0209 58.92C81.3515 59.0693 81.6129 59.288 81.8049 59.576C82.0075 59.8533 82.1089 60.2213 82.1089 60.68C82.1089 61.1707 81.9702 61.5973 81.6929 61.96C81.4262 62.312 81.0315 62.5893 80.5089 62.792C79.9969 62.984 79.3729 63.08 78.6369 63.08ZM86.8494 63.08C86.06 63.08 85.452 62.8667 85.0254 62.44C84.5987 62.0133 84.3854 61.4107 84.3854 60.632V52.744H85.5214V60.568C85.5214 61.0587 85.644 61.4373 85.8894 61.704C86.1454 61.9707 86.508 62.104 86.9774 62.104C87.4787 62.104 87.8947 61.96 88.2254 61.672L88.6254 62.488C88.4014 62.6907 88.1294 62.84 87.8094 62.936C87.5 63.032 87.18 63.08 86.8494 63.08ZM82.8814 55.544V54.6H88.0814V55.544H82.8814ZM93.9645 63.08C93.0898 63.08 92.3218 62.8987 91.6605 62.536C90.9992 62.1627 90.4818 61.656 90.1085 61.016C89.7352 60.3653 89.5485 59.624 89.5485 58.792C89.5485 57.96 89.7245 57.224 90.0765 56.584C90.4392 55.944 90.9298 55.4427 91.5485 55.08C92.1778 54.7067 92.8818 54.52 93.6605 54.52C94.4498 54.52 95.1485 54.7013 95.7565 55.064C96.3752 55.416 96.8605 55.9173 97.2125 56.568C97.5645 57.208 97.7405 57.9493 97.7405 58.792C97.7405 58.8453 97.7352 58.904 97.7245 58.968C97.7245 59.0213 97.7245 59.08 97.7245 59.144H90.4125V58.296H97.1165L96.6685 58.632C96.6685 58.024 96.5352 57.4853 96.2685 57.016C96.0125 56.536 95.6605 56.1627 95.2125 55.896C94.7645 55.6293 94.2472 55.496 93.6605 55.496C93.0845 55.496 92.5672 55.6293 92.1085 55.896C91.6498 56.1627 91.2925 56.536 91.0365 57.016C90.7805 57.496 90.6525 58.0453 90.6525 58.664V58.84C90.6525 59.48 90.7912 60.0453 91.0685 60.536C91.3565 61.016 91.7512 61.3947 92.2525 61.672C92.7645 61.9387 93.3458 62.072 93.9965 62.072C94.5085 62.072 94.9832 61.9813 95.4205 61.8C95.8685 61.6187 96.2525 61.3413 96.5725 60.968L97.2125 61.704C96.8392 62.152 96.3698 62.4933 95.8045 62.728C95.2498 62.9627 94.6365 63.08 93.9645 63.08ZM110.549 54.52C111.231 54.52 111.823 54.6533 112.325 54.92C112.837 55.176 113.231 55.5707 113.509 56.104C113.797 56.6373 113.941 57.3093 113.941 58.12V63H112.805V58.232C112.805 57.3467 112.591 56.68 112.165 56.232C111.749 55.7733 111.157 55.544 110.389 55.544C109.813 55.544 109.311 55.6667 108.885 55.912C108.469 56.1467 108.143 56.4933 107.909 56.952C107.685 57.4 107.573 57.944 107.573 58.584V63H106.437V58.232C106.437 57.3467 106.223 56.68 105.797 56.232C105.37 55.7733 104.773 55.544 104.005 55.544C103.439 55.544 102.943 55.6667 102.517 55.912C102.09 56.1467 101.759 56.4933 101.525 56.952C101.301 57.4 101.189 57.944 101.189 58.584V63H100.053V54.6H101.141V56.872L100.965 56.472C101.221 55.864 101.631 55.3893 102.197 55.048C102.773 54.696 103.45 54.52 104.229 54.52C105.05 54.52 105.749 54.728 106.325 55.144C106.901 55.5493 107.274 56.1627 107.445 56.984L106.997 56.808C107.242 56.1253 107.674 55.576 108.293 55.16C108.922 54.7333 109.674 54.52 110.549 54.52Z" fill="white"/>
</svg>
