<svg width="14" height="14" viewBox="0 0 14 14" fill="none" xmlns="http://www.w3.org/2000/svg">
<path d="M13.2997 0.352878C12.9097 -0.0592644 12.2797 -0.0592644 11.8897 0.352878L6.99973 5.50994L2.10973 0.34231C1.71973 -0.0698324 1.08973 -0.0698324 0.699727 0.34231C0.309727 0.754452 0.309727 1.42022 0.699727 1.83236L5.58973 6.99999L0.699727 12.1676C0.309727 12.5798 0.309727 13.2455 0.699727 13.6577C1.08973 14.0698 1.71973 14.0698 2.10973 13.6577L6.99973 8.49004L11.8897 13.6577C12.2797 14.0698 12.9097 14.0698 13.2997 13.6577C13.6897 13.2455 13.6897 12.5798 13.2997 12.1676L8.40973 6.99999L13.2997 1.83236C13.6797 1.43079 13.6797 0.754452 13.2997 0.352878Z" fill="#434343"/>
</svg>
