<svg width="419" height="172" viewBox="0 0 419 172" fill="none" xmlns="http://www.w3.org/2000/svg">
<rect width="419" height="172" fill="#434343"/>
<path d="M144.68 100.888C137.064 99.608 129.768 95.896 123.496 90.008C142.12 81.752 152.104 73.432 152.104 66.264C152.104 61.4 147.944 58.2 141.608 58.2C134.952 58.2 125.416 62.232 116.072 69.016L117.928 71.896C128.68 64.6 136.168 61.4 142.568 61.4C146.536 61.4 148.584 62.68 148.584 65.048C148.584 70.232 135.848 81.176 126.504 83.992C128.744 79.192 131.112 74.264 133.608 69.208L130.344 67.864C122.92 80.984 117.352 93.4 113 106.648L115.88 107.416L121.768 94.296C128.808 100.504 134.952 103 142.952 103L144.68 100.888ZM152.85 88.216C155.858 85.272 155.09 81.112 151.442 80.92C151.378 80.92 151.314 80.92 151.186 80.92C144.85 80.92 139.922 94.744 146.066 97.048C146.514 97.24 147.026 97.304 147.538 97.304C152.85 97.304 158.546 87.576 160.338 84.824L159.25 84.184C157.458 86.424 150.93 93.848 148.626 93.848C148.434 93.848 148.242 93.848 148.114 93.72C147.666 93.4 147.474 92.632 147.538 91.48C149.842 90.456 151.698 89.368 152.85 88.216ZM147.858 89.368C148.69 86.296 150.418 83.16 151.506 82.968C152.786 82.776 152.53 85.72 151.25 87.192C150.418 88.088 148.946 88.984 147.858 89.368ZM165.839 82.2C164.751 81.432 163.855 81.048 163.151 81.048C160.143 81.048 154.062 89.624 154.062 93.848C154.062 95.192 154.959 95.96 156.495 95.96C158.479 95.96 160.911 94.488 162.51 92.376V92.76C162.51 95.512 163.599 97.048 165.583 97.048C170.255 97.048 175.759 87.896 177.679 84.888L176.655 84.312C172.623 89.048 167.503 93.784 166.351 93.848C166.351 91.864 167.759 86.872 169.871 81.112L166.287 81.304L165.839 82.2ZM163.599 82.968C164.111 82.968 164.879 83.16 164.879 83.8C164.879 85.464 159.375 92.696 157.263 93.72C157.775 91.032 160.719 86.04 163.599 82.968ZM184.428 82.584C183.148 81.624 181.996 81.112 181.036 81.112C177.708 81.112 171.5 90.008 171.5 94.872C171.5 96.28 172.332 97.048 173.932 97.048C176.62 97.048 180.012 94.616 181.292 91.736C180.524 94.616 179.884 97.88 179.244 101.592L182.572 102.552C184.94 90.264 189.996 78.936 194.412 67.288L191.916 65.944C189.42 71.512 186.732 76.952 184.428 82.584ZM174.956 94.68C175.404 92.12 180.652 82.584 182.444 82.584C182.828 82.584 183.084 82.968 183.084 83.992C183.084 85.848 176.876 93.976 174.956 94.68ZM237.766 100.248C241.286 84.888 255.174 62.424 249.03 61.208C248.774 61.144 248.582 61.144 248.326 61.144C241.542 61.144 230.597 79.128 224.134 88.28C224.518 84.44 235.718 59.864 228.422 59.864C228.102 59.864 227.782 59.864 227.462 59.928C219.846 61.656 209.606 80.408 200.134 95.96C202.885 86.808 206.086 77.848 213.126 59.736L208.582 58.136C202.63 74.072 199.494 83.48 194.438 100.248L199.942 102.808C208.582 90.392 221.958 66.392 226.182 64.728C226.374 64.664 226.502 64.664 226.63 64.664C229.446 64.664 221.51 82.392 218.822 93.144L222.406 95.96C226.31 92.568 243.462 65.624 245.702 65.624C247.558 65.624 238.15 84.696 234.566 96.728L237.766 100.248ZM254.589 82.2C253.501 81.432 252.605 81.048 251.901 81.048C248.893 81.048 242.812 89.624 242.812 93.848C242.812 95.192 243.709 95.96 245.245 95.96C247.229 95.96 249.661 94.488 251.26 92.376V92.76C251.26 95.512 252.349 97.048 254.333 97.048C259.005 97.048 264.509 87.896 266.429 84.888L265.405 84.312C261.373 89.048 256.253 93.784 255.101 93.848C255.101 91.864 256.509 86.872 258.621 81.112L255.037 81.304L254.589 82.2ZM252.349 82.968C252.861 82.968 253.629 83.16 253.629 83.8C253.629 85.464 248.125 92.696 246.013 93.72C246.525 91.032 249.469 86.04 252.349 82.968ZM284.752 84.184C280.72 88.92 277.968 91.608 275.472 93.272C275.344 92.76 275.28 92.12 275.28 91.48C275.28 88.216 276.56 85.016 277.392 81.88L274.384 81.176C271.184 82.584 268.24 86.872 265.936 89.496C266.896 86.744 268.112 83.992 270.416 79.32L267.216 78.616C263.824 85.464 261.712 91.48 260.688 97.304L263.696 98.008C265.68 93.912 268.624 90.648 271.504 87.128C271.12 88.664 270.928 90.264 270.928 91.736C270.928 95.064 271.952 97.048 273.68 97.048C276.24 97.048 282.128 91.096 285.776 84.76L284.752 84.184ZM282.252 114.456C282.572 114.52 282.892 114.584 283.212 114.584C289.804 114.584 297.164 98.712 298.124 82.584C296.14 81.944 293.836 80.344 291.34 80.344C290.956 80.344 290.572 80.408 290.188 80.472C283.66 81.88 277.836 92.44 281.804 95.768C282.444 96.28 283.148 96.6 283.98 96.6C286.412 96.6 289.74 93.848 294.604 86.488C294.092 88.984 293.388 91.544 292.556 94.104C282.06 101.528 275.468 112.728 282.252 114.456ZM282.828 111.704C280.588 111.32 287.372 100.952 291.468 97.176C288.204 105.816 284.556 111.96 282.828 111.704ZM283.596 93.72C281.74 91.096 289.42 82.584 293.068 82.584C293.388 82.584 293.708 82.712 293.964 82.84C291.148 87.256 285.964 93.976 284.108 93.976C283.916 93.976 283.724 93.912 283.596 93.72ZM309.901 82.2C308.813 81.432 307.917 81.048 307.213 81.048C304.205 81.048 298.125 89.624 298.125 93.848C298.125 95.192 299.021 95.96 300.557 95.96C302.541 95.96 304.973 94.488 306.573 92.376V92.76C306.573 95.512 307.661 97.048 309.645 97.048C314.317 97.048 319.821 87.896 321.741 84.888L320.717 84.312C316.685 89.048 311.565 93.784 310.413 93.848C310.413 91.864 311.821 86.872 313.933 81.112L310.349 81.304L309.901 82.2ZM307.661 82.968C308.173 82.968 308.941 83.16 308.941 83.8C308.941 85.464 303.437 92.696 301.325 93.72C301.837 91.032 304.781 86.04 307.661 82.968Z" fill="#FFEF77"/>
</svg>
