<svg width="419" height="180" viewBox="0 0 419 180" fill="none" xmlns="http://www.w3.org/2000/svg">
<rect width="419" height="180" fill="white"/>
<path d="M144.68 103.4C137.064 102.12 129.768 98.4076 123.496 92.5196C142.12 84.2636 152.104 75.9436 152.104 68.7756C152.104 63.9116 147.944 60.7116 141.608 60.7116C134.952 60.7116 125.416 64.7436 116.072 71.5276L117.928 74.4076C128.68 67.1116 136.168 63.9116 142.568 63.9116C146.536 63.9116 148.584 65.1916 148.584 67.5596C148.584 72.7436 135.848 83.6876 126.504 86.5036C128.744 81.7036 131.112 76.7756 133.608 71.7196L130.344 70.3756C122.92 83.4956 117.352 95.9116 113 109.16L115.88 109.928L121.768 96.8076C128.808 103.016 134.952 105.512 142.952 105.512L144.68 103.4ZM152.85 90.7276C155.858 87.7836 155.09 83.6236 151.442 83.4316C151.378 83.4316 151.314 83.4316 151.186 83.4316C144.85 83.4316 139.922 97.2556 146.066 99.5596C146.514 99.7516 147.026 99.8156 147.538 99.8156C152.85 99.8156 158.546 90.0876 160.338 87.3356L159.25 86.6956C157.458 88.9356 150.93 96.3596 148.626 96.3596C148.434 96.3596 148.242 96.3596 148.114 96.2316C147.666 95.9116 147.474 95.1436 147.538 93.9916C149.842 92.9676 151.698 91.8796 152.85 90.7276ZM147.858 91.8796C148.69 88.8076 150.418 85.6716 151.506 85.4796C152.786 85.2876 152.53 88.2316 151.25 89.7036C150.418 90.5996 148.946 91.4956 147.858 91.8796ZM165.839 84.7116C164.751 83.9436 163.855 83.5596 163.151 83.5596C160.143 83.5596 154.062 92.1356 154.062 96.3596C154.062 97.7036 154.959 98.4716 156.495 98.4716C158.479 98.4716 160.911 96.9996 162.51 94.8876V95.2716C162.51 98.0236 163.599 99.5596 165.583 99.5596C170.255 99.5596 175.759 90.4076 177.679 87.3996L176.655 86.8236C172.623 91.5596 167.503 96.2956 166.351 96.3596C166.351 94.3756 167.759 89.3836 169.871 83.6236L166.287 83.8156L165.839 84.7116ZM163.599 85.4796C164.111 85.4796 164.879 85.6716 164.879 86.3116C164.879 87.9756 159.375 95.2076 157.263 96.2316C157.775 93.5436 160.719 88.5516 163.599 85.4796ZM184.428 85.0956C183.148 84.1356 181.996 83.6236 181.036 83.6236C177.708 83.6236 171.5 92.5196 171.5 97.3836C171.5 98.7916 172.332 99.5596 173.932 99.5596C176.62 99.5596 180.012 97.1276 181.292 94.2476C180.524 97.1276 179.884 100.392 179.244 104.104L182.572 105.064C184.94 92.7756 189.996 81.4476 194.412 69.7996L191.916 68.4556C189.42 74.0236 186.732 79.4636 184.428 85.0956ZM174.956 97.1916C175.404 94.6316 180.652 85.0956 182.444 85.0956C182.828 85.0956 183.084 85.4796 183.084 86.5036C183.084 88.3596 176.876 96.4876 174.956 97.1916ZM237.766 102.76C241.286 87.3996 255.174 64.9356 249.03 63.7196C248.774 63.6556 248.582 63.6556 248.326 63.6556C241.542 63.6556 230.597 81.6396 224.134 90.7916C224.518 86.9516 235.718 62.3756 228.422 62.3756C228.102 62.3756 227.782 62.3756 227.462 62.4396C219.846 64.1676 209.606 82.9196 200.134 98.4716C202.885 89.3196 206.086 80.3596 213.126 62.2476L208.582 60.6476C202.63 76.5836 199.494 85.9916 194.438 102.76L199.942 105.32C208.582 92.9036 221.958 68.9036 226.182 67.2396C226.374 67.1756 226.502 67.1756 226.63 67.1756C229.446 67.1756 221.51 84.9036 218.822 95.6556L222.406 98.4716C226.31 95.0796 243.462 68.1356 245.702 68.1356C247.558 68.1356 238.15 87.2076 234.566 99.2396L237.766 102.76ZM254.589 84.7116C253.501 83.9436 252.605 83.5596 251.901 83.5596C248.893 83.5596 242.812 92.1356 242.812 96.3596C242.812 97.7036 243.709 98.4716 245.245 98.4716C247.229 98.4716 249.661 96.9996 251.26 94.8876V95.2716C251.26 98.0236 252.349 99.5596 254.333 99.5596C259.005 99.5596 264.509 90.4076 266.429 87.3996L265.405 86.8236C261.373 91.5596 256.253 96.2956 255.101 96.3596C255.101 94.3756 256.509 89.3836 258.621 83.6236L255.037 83.8156L254.589 84.7116ZM252.349 85.4796C252.861 85.4796 253.629 85.6716 253.629 86.3116C253.629 87.9756 248.125 95.2076 246.013 96.2316C246.525 93.5436 249.469 88.5516 252.349 85.4796ZM284.752 86.6956C280.72 91.4316 277.968 94.1196 275.472 95.7836C275.344 95.2716 275.28 94.6316 275.28 93.9916C275.28 90.7276 276.56 87.5276 277.392 84.3916L274.384 83.6876C271.184 85.0956 268.24 89.3836 265.936 92.0076C266.896 89.2556 268.112 86.5036 270.416 81.8316L267.216 81.1276C263.824 87.9756 261.712 93.9916 260.688 99.8156L263.696 100.52C265.68 96.4236 268.624 93.1596 271.504 89.6396C271.12 91.1756 270.928 92.7756 270.928 94.2476C270.928 97.5756 271.952 99.5596 273.68 99.5596C276.24 99.5596 282.128 93.6076 285.776 87.2716L284.752 86.6956ZM282.252 116.968C282.572 117.032 282.892 117.096 283.212 117.096C289.804 117.096 297.164 101.224 298.124 85.0956C296.14 84.4556 293.836 82.8556 291.34 82.8556C290.956 82.8556 290.572 82.9196 290.188 82.9836C283.66 84.3916 277.836 94.9516 281.804 98.2796C282.444 98.7916 283.148 99.1116 283.98 99.1116C286.412 99.1116 289.74 96.3596 294.604 88.9996C294.092 91.4956 293.388 94.0556 292.556 96.6156C282.06 104.04 275.468 115.24 282.252 116.968ZM282.828 114.216C280.588 113.832 287.372 103.464 291.468 99.6876C288.204 108.328 284.556 114.472 282.828 114.216ZM283.596 96.2316C281.74 93.6076 289.42 85.0956 293.068 85.0956C293.388 85.0956 293.708 85.2236 293.964 85.3516C291.148 89.7676 285.964 96.4876 284.108 96.4876C283.916 96.4876 283.724 96.4236 283.596 96.2316ZM309.901 84.7116C308.813 83.9436 307.917 83.5596 307.213 83.5596C304.205 83.5596 298.125 92.1356 298.125 96.3596C298.125 97.7036 299.021 98.4716 300.557 98.4716C302.541 98.4716 304.973 96.9996 306.573 94.8876V95.2716C306.573 98.0236 307.661 99.5596 309.645 99.5596C314.317 99.5596 319.821 90.4076 321.741 87.3996L320.717 86.8236C316.685 91.5596 311.565 96.2956 310.413 96.3596C310.413 94.3756 311.821 89.3836 313.933 83.6236L310.349 83.8156L309.901 84.7116ZM307.661 85.4796C308.173 85.4796 308.941 85.6716 308.941 86.3116C308.941 87.9756 303.437 95.2076 301.325 96.2316C301.837 93.5436 304.781 88.5516 307.661 85.4796Z" fill="#FFEF77"/>
<path d="M198.815 154V143.28L199.327 143.824H196.175V142.8H199.967V154H198.815ZM204.597 154V143.28L205.109 143.824H201.957V142.8H205.749V154H204.597ZM208.218 154V153.184L212.874 148.624C213.3 148.208 213.62 147.845 213.834 147.536C214.047 147.216 214.191 146.917 214.266 146.64C214.34 146.363 214.378 146.101 214.378 145.856C214.378 145.205 214.154 144.693 213.706 144.32C213.268 143.947 212.618 143.76 211.754 143.76C211.092 143.76 210.506 143.861 209.994 144.064C209.492 144.267 209.06 144.581 208.698 145.008L207.882 144.304C208.319 143.792 208.879 143.397 209.562 143.12C210.244 142.843 211.007 142.704 211.85 142.704C212.607 142.704 213.263 142.827 213.818 143.072C214.372 143.307 214.799 143.653 215.098 144.112C215.407 144.571 215.562 145.109 215.562 145.728C215.562 146.091 215.508 146.448 215.402 146.8C215.306 147.152 215.124 147.525 214.858 147.92C214.602 148.304 214.223 148.741 213.722 149.232L209.45 153.424L209.13 152.976H216.074V154H208.218ZM226.795 154.08C226.07 154.08 225.414 153.915 224.827 153.584C224.24 153.243 223.771 152.757 223.419 152.128C223.078 151.488 222.907 150.709 222.907 149.792C222.907 148.875 223.078 148.101 223.419 147.472C223.76 146.832 224.224 146.347 224.811 146.016C225.398 145.685 226.059 145.52 226.795 145.52C227.595 145.52 228.31 145.701 228.939 146.064C229.579 146.416 230.08 146.917 230.443 147.568C230.806 148.208 230.987 148.949 230.987 149.792C230.987 150.645 230.806 151.392 230.443 152.032C230.08 152.672 229.579 153.173 228.939 153.536C228.31 153.899 227.595 154.08 226.795 154.08ZM222.459 157.104V145.6H223.547V148.128L223.435 149.808L223.595 151.504V157.104H222.459ZM226.715 153.072C227.312 153.072 227.846 152.939 228.315 152.672C228.784 152.395 229.158 152.011 229.435 151.52C229.712 151.019 229.851 150.443 229.851 149.792C229.851 149.141 229.712 148.571 229.435 148.08C229.158 147.589 228.784 147.205 228.315 146.928C227.846 146.651 227.312 146.512 226.715 146.512C226.118 146.512 225.579 146.651 225.099 146.928C224.63 147.205 224.256 147.589 223.979 148.08C223.712 148.571 223.579 149.141 223.579 149.792C223.579 150.443 223.712 151.019 223.979 151.52C224.256 152.011 224.63 152.395 225.099 152.672C225.579 152.939 226.118 153.072 226.715 153.072ZM231.726 154L235.278 149.392L235.262 149.952L231.886 145.6H233.166L235.934 149.2L235.454 149.184L238.222 145.6H239.47L236.062 150L236.078 149.392L239.662 154H238.366L235.438 150.16L235.886 150.224L233.006 154H231.726Z" fill="#434343"/>
<path d="M350.731 89.096C349.92 89.096 349.152 88.968 348.427 88.712C347.712 88.4453 347.136 88.0933 346.699 87.656L347.259 86.744C347.621 87.1173 348.107 87.4267 348.715 87.672C349.333 87.9173 350.005 88.04 350.731 88.04C351.659 88.04 352.368 87.8373 352.859 87.432C353.36 87.0267 353.611 86.4827 353.611 85.8C353.611 85.1173 353.365 84.5733 352.875 84.168C352.395 83.7627 351.632 83.56 350.587 83.56H349.787V82.712L353.243 78.376L353.403 78.824H347.163V77.8H354.363V78.616L350.907 82.952L350.347 82.584H350.779C352.123 82.584 353.125 82.8827 353.787 83.48C354.459 84.0773 354.795 84.8453 354.795 85.784C354.795 86.4133 354.645 86.9787 354.347 87.48C354.048 87.9813 353.595 88.376 352.987 88.664C352.389 88.952 351.637 89.096 350.731 89.096ZM356.226 86.056V85.224L362.162 77.8H363.442L357.554 85.224L356.93 85.032H365.938V86.056H356.226ZM362.546 89V86.056L362.578 85.032V82.44H363.698V89H362.546ZM376.272 89.08C375.546 89.08 374.89 88.9147 374.304 88.584C373.717 88.2427 373.248 87.7573 372.896 87.128C372.554 86.488 372.384 85.7093 372.384 84.792C372.384 83.8747 372.554 83.1013 372.896 82.472C373.237 81.832 373.701 81.3467 374.288 81.016C374.874 80.6853 375.536 80.52 376.272 80.52C377.072 80.52 377.786 80.7013 378.416 81.064C379.056 81.416 379.557 81.9173 379.92 82.568C380.282 83.208 380.464 83.9493 380.464 84.792C380.464 85.6453 380.282 86.392 379.92 87.032C379.557 87.672 379.056 88.1733 378.416 88.536C377.786 88.8987 377.072 89.08 376.272 89.08ZM371.936 92.104V80.6H373.024V83.128L372.912 84.808L373.072 86.504V92.104H371.936ZM376.192 88.072C376.789 88.072 377.322 87.9387 377.792 87.672C378.261 87.3947 378.634 87.0107 378.912 86.52C379.189 86.0187 379.328 85.4427 379.328 84.792C379.328 84.1413 379.189 83.5707 378.912 83.08C378.634 82.5893 378.261 82.2053 377.792 81.928C377.322 81.6507 376.789 81.512 376.192 81.512C375.594 81.512 375.056 81.6507 374.576 81.928C374.106 82.2053 373.733 82.5893 373.456 83.08C373.189 83.5707 373.056 84.1413 373.056 84.792C373.056 85.4427 373.189 86.0187 373.456 86.52C373.733 87.0107 374.106 87.3947 374.576 87.672C375.056 87.9387 375.594 88.072 376.192 88.072ZM381.202 89L384.754 84.392L384.738 84.952L381.362 80.6H382.642L385.41 84.2L384.93 84.184L387.698 80.6H388.946L385.538 85L385.554 84.392L389.138 89H387.842L384.914 85.16L385.362 85.224L382.482 89H381.202Z" fill="#434343"/>
<line x1="112.995" y1="127.01" x2="324.995" y2="126" stroke="#D50000" stroke-width="2"/>
<line x1="114" y1="122" x2="114" y2="133" stroke="#D50000" stroke-width="2"/>
<line x1="326" y1="121" x2="326" y2="132" stroke="#D50000" stroke-width="2"/>
<line x1="336" y1="57" x2="336" y2="113" stroke="#D50000" stroke-width="2"/>
<line x1="330" y1="58" x2="341" y2="58" stroke="#D50000" stroke-width="2"/>
<line x1="330" y1="112" x2="341" y2="112" stroke="#D50000" stroke-width="2"/>
</svg>
