<svg width="419" height="180" viewBox="0 0 419 180" fill="none" xmlns="http://www.w3.org/2000/svg">
<rect width="419" height="180" fill="white"/>
<path d="M144.68 103.4C137.064 102.12 129.768 98.4077 123.496 92.5197C142.12 84.2637 152.104 75.9437 152.104 68.7757C152.104 63.9117 147.944 60.7117 141.608 60.7117C134.952 60.7117 125.416 64.7437 116.072 71.5277L117.928 74.4077C128.68 67.1117 136.168 63.9117 142.568 63.9117C146.536 63.9117 148.584 65.1917 148.584 67.5597C148.584 72.7437 135.848 83.6877 126.504 86.5037C128.744 81.7037 131.112 76.7757 133.608 71.7197L130.344 70.3757C122.92 83.4957 117.352 95.9117 113 109.16L115.88 109.928L121.768 96.8077C128.808 103.016 134.952 105.512 142.952 105.512L144.68 103.4ZM152.85 90.7277C155.858 87.7837 155.09 83.6237 151.442 83.4317C151.378 83.4317 151.314 83.4317 151.186 83.4317C144.85 83.4317 139.922 97.2557 146.066 99.5597C146.514 99.7517 147.026 99.8157 147.538 99.8157C152.85 99.8157 158.546 90.0877 160.338 87.3357L159.25 86.6957C157.458 88.9357 150.93 96.3597 148.626 96.3597C148.434 96.3597 148.242 96.3597 148.114 96.2317C147.666 95.9117 147.474 95.1437 147.538 93.9917C149.842 92.9677 151.698 91.8797 152.85 90.7277ZM147.858 91.8797C148.69 88.8077 150.418 85.6717 151.506 85.4797C152.786 85.2877 152.53 88.2317 151.25 89.7037C150.418 90.5997 148.946 91.4957 147.858 91.8797ZM165.839 84.7117C164.751 83.9437 163.855 83.5597 163.151 83.5597C160.143 83.5597 154.062 92.1357 154.062 96.3597C154.062 97.7037 154.959 98.4717 156.495 98.4717C158.479 98.4717 160.911 96.9997 162.51 94.8877V95.2717C162.51 98.0237 163.599 99.5597 165.583 99.5597C170.255 99.5597 175.759 90.4077 177.679 87.3997L176.655 86.8237C172.623 91.5597 167.503 96.2957 166.351 96.3597C166.351 94.3757 167.759 89.3837 169.871 83.6237L166.287 83.8157L165.839 84.7117ZM163.599 85.4797C164.111 85.4797 164.879 85.6717 164.879 86.3117C164.879 87.9757 159.375 95.2077 157.263 96.2317C157.775 93.5437 160.719 88.5517 163.599 85.4797ZM184.428 85.0957C183.148 84.1357 181.996 83.6237 181.036 83.6237C177.708 83.6237 171.5 92.5197 171.5 97.3837C171.5 98.7917 172.332 99.5597 173.932 99.5597C176.62 99.5597 180.012 97.1277 181.292 94.2477C180.524 97.1277 179.884 100.392 179.244 104.104L182.572 105.064C184.94 92.7757 189.996 81.4477 194.412 69.7997L191.916 68.4557C189.42 74.0237 186.732 79.4637 184.428 85.0957ZM174.956 97.1917C175.404 94.6317 180.652 85.0957 182.444 85.0957C182.828 85.0957 183.084 85.4797 183.084 86.5037C183.084 88.3597 176.876 96.4877 174.956 97.1917ZM237.766 102.76C241.286 87.3997 255.174 64.9357 249.03 63.7197C248.774 63.6557 248.582 63.6557 248.326 63.6557C241.542 63.6557 230.597 81.6397 224.134 90.7917C224.518 86.9517 235.718 62.3757 228.422 62.3757C228.102 62.3757 227.782 62.3757 227.462 62.4397C219.846 64.1677 209.606 82.9197 200.134 98.4717C202.885 89.3197 206.086 80.3597 213.126 62.2477L208.582 60.6477C202.63 76.5837 199.494 85.9917 194.438 102.76L199.942 105.32C208.582 92.9037 221.958 68.9037 226.182 67.2397C226.374 67.1757 226.502 67.1757 226.63 67.1757C229.446 67.1757 221.51 84.9037 218.822 95.6557L222.406 98.4717C226.31 95.0797 243.462 68.1357 245.702 68.1357C247.558 68.1357 238.15 87.2077 234.566 99.2397L237.766 102.76ZM254.589 84.7117C253.501 83.9437 252.605 83.5597 251.901 83.5597C248.893 83.5597 242.812 92.1357 242.812 96.3597C242.812 97.7037 243.709 98.4717 245.245 98.4717C247.229 98.4717 249.661 96.9997 251.26 94.8877V95.2717C251.26 98.0237 252.349 99.5597 254.333 99.5597C259.005 99.5597 264.509 90.4077 266.429 87.3997L265.405 86.8237C261.373 91.5597 256.253 96.2957 255.101 96.3597C255.101 94.3757 256.509 89.3837 258.621 83.6237L255.037 83.8157L254.589 84.7117ZM252.349 85.4797C252.861 85.4797 253.629 85.6717 253.629 86.3117C253.629 87.9757 248.125 95.2077 246.013 96.2317C246.525 93.5437 249.469 88.5517 252.349 85.4797ZM284.752 86.6957C280.72 91.4317 277.968 94.1197 275.472 95.7837C275.344 95.2717 275.28 94.6317 275.28 93.9917C275.28 90.7277 276.56 87.5277 277.392 84.3917L274.384 83.6877C271.184 85.0957 268.24 89.3837 265.936 92.0077C266.896 89.2557 268.112 86.5037 270.416 81.8317L267.216 81.1277C263.824 87.9757 261.712 93.9917 260.688 99.8157L263.696 100.52C265.68 96.4237 268.624 93.1597 271.504 89.6397C271.12 91.1757 270.928 92.7757 270.928 94.2477C270.928 97.5757 271.952 99.5597 273.68 99.5597C276.24 99.5597 282.128 93.6077 285.776 87.2717L284.752 86.6957ZM282.252 116.968C282.572 117.032 282.892 117.096 283.212 117.096C289.804 117.096 297.164 101.224 298.124 85.0957C296.14 84.4557 293.836 82.8557 291.34 82.8557C290.956 82.8557 290.572 82.9197 290.188 82.9837C283.66 84.3917 277.836 94.9517 281.804 98.2797C282.444 98.7917 283.148 99.1117 283.98 99.1117C286.412 99.1117 289.74 96.3597 294.604 88.9997C294.092 91.4957 293.388 94.0557 292.556 96.6157C282.06 104.04 275.468 115.24 282.252 116.968ZM282.828 114.216C280.588 113.832 287.372 103.464 291.468 99.6877C288.204 108.328 284.556 114.472 282.828 114.216ZM283.596 96.2317C281.74 93.6077 289.42 85.0957 293.068 85.0957C293.388 85.0957 293.708 85.2237 293.964 85.3517C291.148 89.7677 285.964 96.4877 284.108 96.4877C283.916 96.4877 283.724 96.4237 283.596 96.2317ZM309.901 84.7117C308.813 83.9437 307.917 83.5597 307.213 83.5597C304.205 83.5597 298.125 92.1357 298.125 96.3597C298.125 97.7037 299.021 98.4717 300.557 98.4717C302.541 98.4717 304.973 96.9997 306.573 94.8877V95.2717C306.573 98.0237 307.661 99.5597 309.645 99.5597C314.317 99.5597 319.821 90.4077 321.741 87.3997L320.717 86.8237C316.685 91.5597 311.565 96.2957 310.413 96.3597C310.413 94.3757 311.821 89.3837 313.933 83.6237L310.349 83.8157L309.901 84.7117ZM307.661 85.4797C308.173 85.4797 308.941 85.6717 308.941 86.3117C308.941 87.9757 303.437 95.2077 301.325 96.2317C301.837 93.5437 304.781 88.5517 307.661 85.4797Z" fill="#FFEF77"/>
<path d="M271.905 54V53.184L276.561 48.624C276.988 48.208 277.308 47.8453 277.521 47.536C277.735 47.216 277.879 46.9173 277.953 46.64C278.028 46.3627 278.065 46.1013 278.065 45.856C278.065 45.2053 277.841 44.6933 277.393 44.32C276.956 43.9467 276.305 43.76 275.441 43.76C274.78 43.76 274.193 43.8613 273.681 44.064C273.18 44.2667 272.748 44.5813 272.385 45.008L271.569 44.304C272.007 43.792 272.567 43.3973 273.249 43.12C273.932 42.8427 274.695 42.704 275.537 42.704C276.295 42.704 276.951 42.8267 277.505 43.072C278.06 43.3067 278.487 43.6533 278.785 44.112C279.095 44.5707 279.249 45.1093 279.249 45.728C279.249 46.0907 279.196 46.448 279.089 46.8C278.993 47.152 278.812 47.5253 278.545 47.92C278.289 48.304 277.911 48.7413 277.409 49.232L273.137 53.424L272.817 52.976H279.761V54H271.905ZM284.743 54.096C283.943 54.096 283.18 53.968 282.455 53.712C281.73 53.4453 281.154 53.0933 280.727 52.656L281.287 51.744C281.639 52.1173 282.119 52.4267 282.727 52.672C283.346 52.9173 284.012 53.04 284.727 53.04C285.676 53.04 286.396 52.832 286.887 52.416C287.388 51.9893 287.639 51.4347 287.639 50.752C287.639 50.272 287.522 49.8613 287.287 49.52C287.063 49.168 286.679 48.896 286.135 48.704C285.591 48.512 284.844 48.416 283.895 48.416H281.511L282.087 42.8H288.215V43.824H282.551L283.143 43.264L282.647 47.968L282.055 47.392H284.151C285.282 47.392 286.188 47.5307 286.871 47.808C287.554 48.0853 288.044 48.4747 288.343 48.976C288.652 49.4667 288.807 50.0427 288.807 50.704C288.807 51.3333 288.658 51.9093 288.359 52.432C288.06 52.944 287.612 53.3493 287.015 53.648C286.418 53.9467 285.66 54.096 284.743 54.096ZM299.545 54.08C298.82 54.08 298.164 53.9147 297.577 53.584C296.99 53.2427 296.521 52.7573 296.169 52.128C295.828 51.488 295.657 50.7093 295.657 49.792C295.657 48.8747 295.828 48.1013 296.169 47.472C296.51 46.832 296.974 46.3467 297.561 46.016C298.148 45.6853 298.809 45.52 299.545 45.52C300.345 45.52 301.06 45.7013 301.689 46.064C302.329 46.416 302.83 46.9173 303.193 47.568C303.556 48.208 303.737 48.9493 303.737 49.792C303.737 50.6453 303.556 51.392 303.193 52.032C302.83 52.672 302.329 53.1733 301.689 53.536C301.06 53.8987 300.345 54.08 299.545 54.08ZM295.209 57.104V45.6H296.297V48.128L296.185 49.808L296.345 51.504V57.104H295.209ZM299.465 53.072C300.062 53.072 300.596 52.9387 301.065 52.672C301.534 52.3947 301.908 52.0107 302.185 51.52C302.462 51.0187 302.601 50.4427 302.601 49.792C302.601 49.1413 302.462 48.5707 302.185 48.08C301.908 47.5893 301.534 47.2053 301.065 46.928C300.596 46.6507 300.062 46.512 299.465 46.512C298.868 46.512 298.329 46.6507 297.849 46.928C297.38 47.2053 297.006 47.5893 296.729 48.08C296.462 48.5707 296.329 49.1413 296.329 49.792C296.329 50.4427 296.462 51.0187 296.729 51.52C297.006 52.0107 297.38 52.3947 297.849 52.672C298.329 52.9387 298.868 53.072 299.465 53.072ZM304.476 54L308.028 49.392L308.012 49.952L304.636 45.6H305.916L308.684 49.2L308.204 49.184L310.972 45.6H312.22L308.812 50L308.828 49.392L312.412 54H311.116L308.188 50.16L308.636 50.224L305.756 54H304.476Z" fill="#434343"/>
<line x1="88" y1="59.5" x2="346" y2="59.5" stroke="#434343"/>
<line x1="88" y1="35.5" x2="346" y2="35.5" stroke="#434343"/>
<line x1="88" y1="142.5" x2="346" y2="142.5" stroke="#434343"/>
<line x1="88" y1="117.5" x2="346" y2="117.5" stroke="#434343"/>
<path d="M113 35V143" stroke="#434343"/>
<path d="M88 35V143" stroke="#434343"/>
<path d="M346 35V143" stroke="#434343"/>
<path d="M321 35V143" stroke="#434343"/>
</svg>
