<svg width="26" height="26" viewBox="0 0 26 26" fill="none" xmlns="http://www.w3.org/2000/svg">
<path d="M16.2507 3.25H6.50065C5.60148 3.25 4.83232 3.79167 4.50732 4.57167L1.23565 12.2092C1.13815 12.4583 1.08398 12.7183 1.08398 13V15.1667C1.08398 16.3583 2.05898 17.3333 3.25065 17.3333H10.0865L9.05732 22.2842L9.02482 22.6308C9.02482 23.075 9.20899 23.4867 9.50149 23.7792L10.6498 24.9167L17.789 17.7775C18.179 17.3875 18.4173 16.8458 18.4173 16.25V5.41667C18.4173 4.225 17.4423 3.25 16.2507 3.25ZM20.584 3.25V16.25H24.9173V3.25H20.584Z" fill="#434343"/>
</svg>
