<svg width="26" height="26" viewBox="0 0 26 26" fill="none" xmlns="http://www.w3.org/2000/svg">
<path d="M14.214 2.23167L8.21232 8.23334C7.81148 8.63417 7.58398 9.18667 7.58398 9.76084V20.5833C7.58398 21.775 8.55898 22.75 9.75065 22.75H19.5007C20.3673 22.75 21.1473 22.23 21.494 21.4392L25.0257 13.195C25.9357 11.05 24.3648 8.66667 22.0357 8.66667H15.9148L16.944 3.705C17.0523 3.16334 16.8898 2.61084 16.4998 2.22084C15.8607 1.5925 14.8423 1.5925 14.214 2.23167ZM3.25065 22.75C4.44232 22.75 5.41732 21.775 5.41732 20.5833V11.9167C5.41732 10.725 4.44232 9.75 3.25065 9.75C2.05898 9.75 1.08398 10.725 1.08398 11.9167V20.5833C1.08398 21.775 2.05898 22.75 3.25065 22.75Z" fill="#434343"/>
</svg>
